name D:\school\WTK\thesis\model\3dpredictsim\Results\batch_windlass\Pog_s1_tmt_aCst_d00_k1000_WL10_ig24_act_TTC.mot
datacolumns 128
datarows 4
range 0.00000000 0.03669930
endheader
time	pelvis_tilt	pelvis_list	pelvis_rotation	pelvis_tx	pelvis_ty	pelvis_tz	hip_flexion_l	hip_adduction_l	hip_rotation_l	hip_flexion_r	hip_adduction_r	hip_rotation_r	knee_angle_l	knee_angle_r	ankle_angle_l	ankle_angle_r	subtalar_angle_l	subtalar_angle_r	tmt_angle_l	tmt_angle_r	mtp_angle_l	mtp_angle_r	lumbar_extension	lumbar_bending	lumbar_rotation	arm_flex_l	arm_add_l	arm_rot_l	arm_flex_r	arm_add_r	arm_rot_r	elbow_flex_l	elbow_flex_r	pro_sup_l	pro_sup_r	glut_med1_l/activation	glut_med2_l/activation	glut_med3_l/activation	glut_min1_l/activation	glut_min2_l/activation	glut_min3_l/activation	semimem_l/activation	semiten_l/activation	bifemlh_l/activation	bifemsh_l/activation	sar_l/activation	add_long_l/activation	add_brev_l/activation	add_mag1_l/activation	add_mag2_l/activation	add_mag3_l/activation	tfl_l/activation	pect_l/activation	grac_l/activation	glut_max1_l/activation	glut_max2_l/activation	glut_max3_l/activation	iliacus_l/activation	psoas_l/activation	quad_fem_l/activation	gem_l/activation	peri_l/activation	rect_fem_l/activation	vas_med_l/activation	vas_int_l/activation	vas_lat_l/activation	med_gas_l/activation	lat_gas_l/activation	soleus_l/activation	tib_post_l/activation	flex_dig_l/activation	flex_hal_l/activation	tib_ant_l/activation	per_brev_l/activation	per_long_l/activation	per_tert_l/activation	ext_dig_l/activation	ext_hal_l/activation	ercspn_l/activation	intobl_l/activation	extobl_l/activation	glut_med1_r/activation	glut_med2_r/activation	glut_med3_r/activation	glut_min1_r/activation	glut_min2_r/activation	glut_min3_r/activation	semimem_r/activation	semiten_r/activation	bifemlh_r/activation	bifemsh_r/activation	sar_r/activation	add_long_r/activation	add_brev_r/activation	add_mag1_r/activation	add_mag2_r/activation	add_mag3_r/activation	tfl_r/activation	pect_r/activation	grac_r/activation	glut_max1_r/activation	glut_max2_r/activation	glut_max3_r/activation	iliacus_r/activation	psoas_r/activation	quad_fem_r/activation	gem_r/activation	peri_r/activation	rect_fem_r/activation	vas_med_r/activation	vas_int_r/activation	vas_lat_r/activation	med_gas_r/activation	lat_gas_r/activation	soleus_r/activation	tib_post_r/activation	flex_dig_r/activation	flex_hal_r/activation	tib_ant_r/activation	per_brev_r/activation	per_long_r/activation	per_tert_r/activation	ext_dig_r/activation	ext_hal_r/activation	ercspn_r/activation	intobl_r/activation	extobl_r/activation	
          0.00000000	         -2.92673303	         -0.60923386	         10.11867922	          0.00000000	          0.85368423	         -0.00388447	        -15.66700058	         -3.07392027	          6.94185113	         34.34659200	         -1.89222438	         -3.61072295	        -17.60107072	        -21.47407120	         -9.55842479	          0.34503348	         18.46842465	          7.35381472	         -2.88008162	         -0.08348207	         33.61976219	          0.85816658	          0.47681624	         -2.63284031	         -2.94828112	          1.43308480	        -13.50760373	         14.12135322	        -15.46624823	        -13.77185915	          6.78759389	         49.15809284	         23.28716057	         86.51662706	         86.51662706	          0.16848646	          0.09097348	          0.07500404	          0.23435902	          0.15405561	          0.10580029	          0.05117810	          0.05010621	          0.05010143	          0.05514396	          0.12217157	          0.05008268	          0.05005926	          0.05007566	          0.05018496	          0.05011815	          0.22054020	          0.05054335	          0.05041969	          0.05434717	          0.05193933	          0.05031899	          0.39118833	          0.42783721	          0.05093402	          0.05520995	          0.07350476	          0.25049570	          0.09363681	          0.10318714	          0.10132100	          0.16381496	          0.24033337	          0.05382476	          0.18180296	          0.20929088	          0.20904310	          0.05001936	          0.54328453	          0.42046276	          0.05012937	          0.27331597	          0.05054034	          0.05001374	          0.05032427	          0.05316258	          0.05029933	          0.05104564	          0.05201025	          0.05209873	          0.05168640	          0.05234036	          0.10703779	          0.07012880	          0.12450010	          0.06919653	          0.06573260	          0.07650391	          0.07486613	          0.08149155	          0.06520760	          0.05680465	          0.05046200	          0.05993860	          0.07047366	          0.05159358	          0.05505539	          0.06354215	          0.09251149	          0.10445210	          0.19823029	          0.07520399	          0.08951380	          0.06190914	          0.05350328	          0.06031112	          0.05430248	          0.07258935	          0.07253580	          0.07246740	          0.07244525	          0.07226926	          0.07243180	          0.43183458	          0.24075986	          0.17205483	          0.05052258	          0.50748601	          0.05039509	          0.05003545	          0.17038647	          0.15108275	
          0.01223310	         -2.93006206	         -0.57826770	         10.30805010	          0.01975397	          0.85262182	         -0.00350157	        -15.99435446	         -3.41836399	          6.64555479	         33.92769810	         -1.67454333	         -3.48719050	        -18.41212011	        -21.31485165	        -12.94855910	         -0.02312093	         18.83185002	          6.91196957	         -3.35942135	         -0.09806159	         35.43872437	          1.06012577	          0.70334863	         -2.42511088	         -3.06312699	          1.09488568	        -13.55733570	         14.58970724	        -16.93523021	        -13.75269187	          6.96531329	         50.20317444	         23.21103338	         86.51662706	         86.51662706	          0.14009525	          0.07562530	          0.06234172	          0.19475443	          0.12804235	          0.08797539	          0.05249006	          0.05015566	          0.05013673	          0.05018750	          0.10156751	          0.11962874	          0.09016611	          0.06092587	          0.05200276	          0.05107926	          0.18322425	          0.06346338	          0.05074772	          0.05232224	          0.05188239	          0.05144366	          0.32495216	          0.35539376	          0.05013462	          0.05044338	          0.06116837	          0.20807713	          0.07801126	          0.08632146	          0.09142995	          0.13607404	          0.19963673	          0.05003079	          0.15101790	          0.17386636	          0.17365365	          0.23905251	          0.55260493	          0.39143902	          0.47678560	          0.45567885	          0.05011983	          0.05000704	          0.05004084	          0.06452793	          0.05032675	          0.05065711	          0.05110003	          0.05090133	          0.05085064	          0.05061471	          0.08899356	          0.07066108	          0.10348694	          0.07192790	          0.05488535	          0.07073750	          0.06248854	          0.14457085	          0.09664104	          0.07690676	          0.07207068	          0.05728147	          0.07439319	          0.05061020	          0.07065125	          0.08311691	          0.07697559	          0.08695157	          0.16724014	          0.06290837	          0.07458043	          0.05149126	          0.10845857	          0.11526203	          0.10318850	          0.06029867	          0.06025728	          0.06019698	          0.06018400	          0.06020407	          0.06024493	          0.48599922	          0.27481164	          0.15555328	          0.05023779	          0.56738301	          0.05009928	          0.05002080	          0.14153674	          0.12550108	
          0.02446620	         -2.92548738	         -0.55398503	         10.45490114	          0.03977157	          0.85107196	         -0.00310185	        -16.16066355	         -3.74220350	          6.33621282	         33.46185321	         -1.40726607	         -3.31679235	        -19.58000485	        -21.82135967	        -16.06579255	         -0.32376658	         19.17337819	          6.40564538	         -3.68018326	         -0.10773510	         36.14647829	          1.21940962	          0.94044145	         -2.18980291	         -3.16433681	          0.69836676	        -13.63137015	         15.01181111	        -18.36251636	        -13.74049884	          7.23455366	         51.21138600	         23.03536268	         86.51662706	         86.51662706	          0.11643383	          0.06293726	          0.05210291	          0.16184269	          0.10642809	          0.07322139	          0.05262038	          0.05298636	          0.05899777	          0.05966508	          0.08445912	          0.10480061	          0.21658860	          0.28330698	          0.11975698	          0.05063666	          0.15221646	          0.07523401	          0.06175940	          0.05129568	          0.05058289	          0.05030915	          0.26992733	          0.29521252	          0.06344225	          0.07295533	          0.07251277	          0.17284093	          0.06485944	          0.07179056	          0.07606127	          0.11303249	          0.16583489	          0.05002223	          0.12544771	          0.14444899	          0.14426071	          0.38369355	          0.49847312	          0.35785264	          0.68187345	          0.57320222	          0.28354620	          0.06005745	          0.07238673	          0.06059894	          0.10405403	          0.05033666	          0.05717542	          0.05024205	          0.05029441	          0.05132275	          0.07394196	          0.05900192	          0.08598375	          0.06017011	          0.06043889	          0.05885792	          0.05197351	          0.13109218	          0.18910338	          0.12060689	          0.05992667	          0.05165354	          0.06204597	          0.06016384	          0.11495813	          0.12648437	          0.06400549	          0.07226642	          0.24082606	          0.05378211	          0.08987991	          0.07229753	          0.27286147	          0.26099295	          0.23022479	          0.05008776	          0.05005457	          0.05000278	          0.05000991	          0.05010030	          0.05007226	          0.69172044	          0.22828814	          0.12921901	          0.47684497	          0.64229959	          0.42489770	          0.05001151	          0.11756946	          0.10424980	
          0.03669930	         -2.91475548	         -0.53798749	         10.56012430	          0.05986350	          0.84907263	         -0.00269957	        -16.13476573	         -4.04250956	          6.03232221	         32.82927738	         -1.10302995	         -3.07377967	        -21.20758928	        -22.92509985	        -18.42843473	         -0.27330291	         19.46017911	          5.85509803	         -3.70788843	         -0.25031322	         34.73337456	          1.25981626	          1.17442521	         -1.93145368	         -3.24520387	          0.26944636	        -13.72311603	         15.38647465	        -19.71677807	        -13.74205914	          7.62158949	         52.19167499	         22.75016135	         86.51662706	         86.51662706	          0.23900797	          0.06024269	          0.06021383	          0.13451161	          0.08849080	          0.06092065	          0.08010230	          0.05008735	          0.05026292	          0.05004200	          0.07021228	          0.08709358	          0.26153648	          0.23554563	          0.11987976	          0.18534158	          0.12646459	          0.06286474	          0.05172618	          0.06110182	          0.06590901	          0.11513487	          0.22422158	          0.24522462	          0.06037476	          0.06084119	          0.06026140	          0.14357164	          0.07246448	          0.07246419	          0.07246241	          0.09389504	          0.13776077	          0.06232885	          0.10420890	          0.12001926	          0.11984767	          0.39007792	          0.44005461	          0.30992001	          0.59116452	          0.76489261	          0.23556195	          0.11785005	          0.06014925	          0.05035079	          0.25447882	          0.34120772	          0.48038443	          0.20721230	          0.08046430	          0.42994086	          0.06835028	          0.05005214	          0.07260189	          0.05003712	          0.05041662	          0.06228113	          0.08732558	          0.10906617	          0.15725390	          0.13095781	          0.05020612	          0.06214133	          0.05185167	          0.05011735	          0.19302792	          0.14818081	          0.06008665	          0.06008448	          0.20011007	          0.15656881	          0.37428614	          0.06014498	          0.35727252	          0.33746608	          0.29956163	          0.06020758	          0.06023627	          0.06094562	          0.18583624	          0.14032316	          0.14069924	          0.57459330	          0.18963390	          0.10733972	          0.39610839	          0.53353979	          0.35300558	          0.06049730	          0.09766145	          0.08659731	
